<svg width="14" height="15" viewBox="0 0 14 15" fill="none" xmlns="http://www.w3.org/2000/svg">
<path d="M4.28171 8.67183C4.14202 8.80875 4.13978 9.03296 4.27665 9.17265L6.74959 11.6456C6.81591 11.7121 6.90605 11.7495 7 11.7493C7.09395 11.7494 7.18404 11.7121 7.25041 11.6456L9.72335 9.17265C9.85828 9.03495 9.85828 8.81463 9.72335 8.67694C9.58643 8.53725 9.36222 8.53496 9.22253 8.67183L7.35417 10.5402V0.770182C7.35417 0.574595 7.19559 0.416016 7 0.416016C6.80441 0.416016 6.64583 0.574595 6.64583 0.770182V10.5402L4.77742 8.67183C4.63977 8.5369 4.41941 8.5369 4.28171 8.67183ZM11.25 5.37435H10.1875C9.99191 5.37435 9.83333 5.53293 9.83333 5.72852C9.83333 5.9241 9.99191 6.08268 10.1875 6.08268H11.25C12.032 6.08368 12.6657 6.71735 12.6667 7.49935V12.4577C12.6657 13.2397 12.032 13.8734 11.25 13.8743H2.75C1.968 13.8734 1.33433 13.2397 1.33333 12.4577V7.49935C1.33433 6.71735 1.968 6.08368 2.75 6.08268H4.52083C4.71642 6.08268 4.875 5.9241 4.875 5.72852C4.875 5.53293 4.71642 5.37435 4.52083 5.37435H2.75C1.57691 5.37565 0.626297 6.32626 0.625 7.49935V12.4577C0.626297 13.6308 1.57691 14.5814 2.75 14.5827H11.25C12.4231 14.5814 13.3737 13.6308 13.375 12.4577V7.49935C13.3737 6.32626 12.4231 5.37565 11.25 5.37435Z" fill="white"/>
</svg>
